<?xml version="1.0" encoding="utf-8"?>
<!-- Generator: Adobe Illustrator 26.0.0, SVG Export Plug-In . SVG Version: 6.00 Build 0)  -->
<svg version="1.1" id="Layer_1" xmlns="http://www.w3.org/2000/svg" xmlns:xlink="http://www.w3.org/1999/xlink" x="0px" y="0px"
	 viewBox="0 0 185.5 65.3" style="enable-background:new 0 0 185.5 65.3;" xml:space="preserve">
<style type="text/css">
	.st0{fill:#BFC4BF;}
</style>
<g id="ingot">
	<g transform="translate(0.000000,200.000000) scale(0.100000,-0.100000)">
		<path class="st0" d="M298,1783.1c-96.5-21-177.8-38.7-180.7-39.7c-5.4-1.8,76.2-33.2,86.7-33.6c5.4,0,339.7,74.8,350.5,78.4
			c4.7,1.8,4.7,2.2,0,3.6c-2.9,1.1-22.4,8.3-43,15.9c-21,7.9-37.9,14.1-37.9,13.7C473.3,1821.1,394.5,1804.1,298,1783.1z
			 M496.4,1797.9c1.4,1.1,2.9-0.4,2.9-3.3s-1.1-5.1-2.2-4.7c-1.1,0-3.3-0.4-4.7-0.7c-5.1-1.8-8.3-2.5-22.8-5.1
			c-7.9-1.8-31.4-6.9-52.4-11.9c-63.6-14.8-63.2-14.8-63.2-15.5s-7.2-2.2-23.5-5.4c-6.9-1.1-31.4-6.1-54.2-11.6
			c-22.8-5.1-46.3-9.8-52.4-10.8c-5.8-1.1-12.3-3.3-14.5-4.7c-4.3-3.3-30,6.9-32.2,13c-1.1,2.5,6.9,5.8,20.6,8.7
			c12.3,2.5,40.5,8.3,62.2,13c22,5.1,43,9.4,47,10.1c37.9,7.2,116.4,25.3,119.2,27.1c2.2,1.4,9.8,2.9,17,3.6
			c7.2,0.4,18.1,2.2,23.5,3.6c6.9,2.2,12.6,1.4,18.4-2.2C489.5,1798.7,494.6,1796.9,496.4,1797.9z"/>
		<path class="st0" d="M435.3,1738.3c-76.6-17.7-157.5-36.1-179.6-41.6l-40.8-9.4v-95.8c0-89.6,0.4-95.8,6.5-93.2
			c3.3,1.1,94,30,201.3,63.6s200.2,62.9,206.7,65c6.1,1.8,12.3,6.1,13.4,9c2.2,5.8-61.1,135.5-65.8,134.8
			C575.5,1770.8,512,1756,435.3,1738.3z M574.8,1748.1c2.2-2.2,3.6-4.7,4-5.8c0-1.1,4-9,8.7-18.1c4.7-9,8.7-17,8.7-18.1
			c1.4-8.3,6.5-18.1,9.4-18.1c1.8,0,2.9-1.1,2.5-2.5c-0.4-1.8,3.3-10.1,7.9-19.2c4.7-9,8.7-17.7,9-19.9c0.4-4.3-12.3-14.1-14.8-11.6
			c-1.8,1.4-62.9-17.3-80.9-24.9c-2.9-1.4-7.9-2.9-10.8-3.3c-7.6-1.1-80.6-23.8-84.9-26.4c-1.8-1.4-6.5-2.9-10.5-3.3
			c-3.6-0.7-18.8-5.4-34.3-10.5c-15.2-5.1-30-9.8-32.9-10.5s-6.1-1.4-7.2-1.8c-1.1-0.4-2.9-0.7-4.3-0.4c-1.8,0-2.9-1.4-2.9-3.6
			c0-1.8-1.4-2.9-2.9-1.8c-1.8,1.1-25.3-5.4-52.8-14.1c-27.5-9-51.3-15.2-53.1-14.1s-3.3,35.8-3.3,77.3c0,83.8-1.1,80.9,26.4,83.8
			c3.3,0.4,6.1,1.8,6.1,2.9s5.4,2.2,12.3,2.5c9.8,0.7,45.9,8.7,110.6,24.6c2.9,0.7,24.2,5.4,47,10.5c22.8,4.7,58.5,13,79.5,18.1
			C569,1753.5,569.4,1753.9,574.8,1748.1z"/>
		<path class="st0" d="M44.4,1671.8c-25.7-29.3-45.2-54.2-44.4-57.1c1.8-4,185.7-114.5,191.2-114.5c1.4,0,1.8,42.3,1.4,94.3
			l-1.1,94.3l-48.8,17.7c-26.7,9.8-49.5,17.7-50.6,17.3C91,1723.9,69.7,1700.4,44.4,1671.8z M115.9,1700.4
			c9.8-3.3,20.2-6.5,23.1-7.6c2.9-1.4,7.2-2.5,9-2.5c2.2-0.4,8.7-3.3,15.2-6.9l11.6-6.1l1.1-75.2c1.1-71.2,0.7-75.2-5.4-74.8
			c-3.6,0.4-7.9,2.2-9,4.3c-3.3,4.3-63.6,39.4-64.7,37.2c-0.4-1.1-4.3,1.8-9,5.8c-4.7,4.3-12.6,10.1-17.7,12.6
			c-49.9,26.4-51.7,27.8-43.7,40.5c5.8,8.3,68.7,78.4,70.8,78.4C97.5,1706.2,106.2,1703.6,115.9,1700.4z"/>
	</g>
</g>
<g id="Layer_1_00000069366883580407525820000006713175060710205345_">
	<path class="st0" d="M154.7,10.5c-0.3,2,0.9,4.6,2.4,4.9c2.6,0.6,2.1-3.2-0.8-5.3l-1.4-1L154.7,10.5z"/>
	<path class="st0" d="M99.3,45.3c2.4,4.1,9.4,9.2,15.8,11.7c1.8,0.7,6.8,2.3,10.9,3.6c6.2,1.9,7.9,2.6,9.3,3.7
		c2.7,2,2.3,0.8-0.7-2.4c-2.3-2.4-2.8-2.8-6-3.9c-1.9-0.7-5.2-1.5-7.3-1.9c-8.7-1.5-17.4-5.7-20.9-10.1
		C98.6,43.5,98.1,43.3,99.3,45.3z"/>
	<g transform="translate(0.000000,42.000000) scale(0.100000,-0.100000)">
		<path class="st0" d="M547.6,288.1c-24-12-51-42-87-97c-73-113-93-136-133-144c-29-6-35-11-35-31c0-22,4-25,30-23
			c51,4,104,52,159,142c83,138,27,126,597,129c478,3,489,3,489,22c0,20-10,20-492,20C626.6,306.1,579.6,304.1,547.6,288.1z"/>
		<path class="st0" d="M590.6,216.1c-18-11-33-22-33-25s187-5,415-5h415v25v25h-382C641.6,236.1,620.6,235.1,590.6,216.1z"/>
		<path class="st0" d="M530.6,154.1c-30-39-36-38,331-38h356v25v25h-339C619.6,166.1,537.6,163.1,530.6,154.1z"/>
		<path class="st0" d="M472.6,66.1c-10-11-16-20-14-20s133-1,291-3l287-2l4,23l4,22h-277C503.6,86.1,489.6,85.1,472.6,66.1z"/>
		<path class="st0" d="M422.6,6.1c-3-5-27-16-53-24c-42-13,5-15,486-15c317-1,532,3,532,8s3,16,6,25c6,14-41,16-479,16
			C606.6,16.1,426.6,12.1,422.6,6.1z"/>
	</g>
</g>
<g id="wheat">
	<path class="st0" d="M162.1,0.5c-1.5,2-2,4.9-0.8,5.7c0.9,0.7-0.4,5.7-3.7,14.1c-3.4,8.6-6.4,13.2-12.2,18.6
		c-7.6,7.1-19.3,11.2-31.1,10.7c-2.2-0.1-4.4-0.1-4.7-0.2c-0.4,0-0.6,0.1-0.3,0.4c0.5,0.4,7.5,1.1,9.9,0.9c4.5-0.2,6.3-0.5,8.7-1
		c8-1.8,15.6-5.9,20.8-11.4c1-1.1,3-3.6,4.4-5.6c2.4-3.4,2.8-4.3,5.4-11.3c1.7-4.7,2.9-8.9,3.3-11.1c0.4-2.7,0.8-3.6,1.2-3.8
		c1.1-0.5,1.5-2.4,1.1-4.3C163.4,0,162.8-0.5,162.1,0.5z"/>
	<path class="st0" d="M166,6.2c-2,0.9-2.4,1.3-2.7,2.5c-0.5,1.9,0.5,2.5,2.5,1.5c1.2-0.6,1.6-1.2,2.2-2.8c0.4-1.1,0.7-2.1,0.5-2.2
		C168.4,5.2,167.3,5.7,166,6.2z"/>
	<path class="st0" d="M155.9,3.7c-0.3,0.7,0.2,3.1,0.8,4.2c0.7,1.3,2.9,1.9,3.4,1c0.6-1-0.4-3-2.3-4.3C156.8,3.8,156,3.4,155.9,3.7z
		"/>
	<path class="st0" d="M164.6,12.8c-2.6,1.2-3.4,2.2-3,3.6c0.6,2.1,4.5,0.3,5.6-2.7c0.3-0.8,0.3-1.6,0.1-1.7
		C167,11.9,165.9,12.3,164.6,12.8z"/>
	<path class="st0" d="M163.2,19.1c-2,0.4-2.6,0.8-3.3,2c-0.8,1.3-0.6,2.3,0.4,2.7c0.8,0.3,3.6-1.3,4.5-2.6
		C166.9,18.5,166.7,18.3,163.2,19.1z"/>
	<path class="st0" d="M152.9,15.8c-0.2,2.3,0.1,3.9,1.3,4.9c1.2,1.1,2.1,1.1,2.5-0.1c0.6-1.7-0.4-3.8-2.7-5.5
		C153.1,14.5,153,14.6,152.9,15.8z"/>
	<path class="st0" d="M150.7,21.7c-0.4,2.4,0.3,4.2,1.8,5c1.2,0.6,1.3,0.5,1.7-0.6c0.5-1.5,0.2-2.5-1.3-4.4
		C151.3,19.7,151,19.7,150.7,21.7z"/>
	<path class="st0" d="M161,25.4c-3.5,0.5-5.8,3.3-3.4,4.2c1.7,0.6,3.6-0.2,4.9-2C164.6,24.9,164.5,24.8,161,25.4z"/>
	<path class="st0" d="M147.9,26.6c-0.4,1.9,0,4,1,5.2c0.4,0.6,0.7,0.6,1.5,0.1c1.2-0.9,1.2-2.2,0-4.7
		C148.9,24.4,148.4,24.3,147.9,26.6z"/>
	<path class="st0" d="M157.6,31.6c-2.6,0.3-3.8,1-4.4,2.5c-0.3,0.8-0.1,1,1.5,1.4c1.6,0.4,2.1,0.4,3.6-0.8c2.2-1.6,3.2-2.9,2.4-3.2
		C160.4,31.5,159,31.5,157.6,31.6z"/>
	<path class="st0" d="M144.7,30.6c-1.3,2.1-0.5,5.9,1.3,6.1c1.8,0.3,2.3-2.8,1-5.3C145.8,29.3,145.5,29.2,144.7,30.6z"/>
	<path class="st0" d="M153.4,37.3c-2.5,0-4,0.7-4.3,2c-0.2,0.9,0,1.3,1.1,1.8c1.6,0.8,3.6,0.2,5.9-1.7l1.6-1.3l-1.2-0.4
		C155.7,37.5,154.4,37.3,153.4,37.3z"/>
	<path class="st0" d="M141,34.3c-1.7,3-1.3,6.8,0.7,6.4c1.6-0.4,2.3-2.7,1.4-5.3c-0.4-1.2-0.8-2.3-1-2.4
		C141.9,33,141.4,33.6,141,34.3z"/>
	<path class="st0" d="M130,34.8c-2.5,0.2-5.2,1.5-7.7,3.9c-5,4.7-9.6,7.4-13.4,8c-1.1,0.1-1.9,0.4-1.8,0.5c0.3,0.6,5.1-0.3,7.8-1.5
		c2.7-1.1,4.1-2,10.4-6.9c1.6-1.3,3.8-2.6,4.7-3C132.3,35,132.3,34.7,130,34.8z"/>
	<path class="st0" d="M136.8,37.4c-1.3,1.4-2.1,5-1.4,6c0.5,0.7,0.7,0.7,1.5,0.4c1.6-0.6,2.1-2.2,1.8-4.8c-0.2-1.4-0.4-2.5-0.7-2.6
		C137.9,36.3,137.3,36.8,136.8,37.4z"/>
	<path class="st0" d="M147.9,42.3c-2.2-0.2-4.6,1-4.4,2.2c0.3,1.1,2,2,3.9,1.9c1.3,0,4.9-1.9,5.2-2.6
		C152.7,43.4,149.9,42.5,147.9,42.3z"/>
	<path class="st0" d="M132.2,39.6c-2.4,1.9-3.4,5.9-1.7,6.6c1.9,0.7,3.6-2.4,3.2-5.8l-0.2-2L132.2,39.6z"/>
	<path class="st0" d="M140.7,46.3c-1.3,0-2.6,0.7-2.9,1.5c-0.3,1,1.5,2.6,3.2,2.8c0.7,0.1,2.4-0.2,3.7-0.7c2.1-0.8,2.3-1,1.7-1.5
		C145.6,47.7,141.8,46.3,140.7,46.3z"/>
	<path class="st0" d="M133.5,49.2c-0.7,0.1-1.4,0.6-1.8,1.2c-1.1,2.2,2.8,4.1,6.6,3.2c1-0.2,1.8-0.6,1.9-0.9c0-0.5-3-2.8-4.4-3.3
		C135.2,49.2,134.2,49.2,133.5,49.2z"/>
</g>
</svg>
