<svg xmlns="http://www.w3.org/2000/svg" viewBox="0 0 168.51 65.21"><defs><style>.cls-1{fill:#673ab8;stroke:#673ab8;stroke-miterlimit:10;}</style></defs><g id="ingot"><path d="M87,11.3c-9.64,2.09-17.78,3.86-18.06,4-.55.18,7.62,3.33,8.67,3.36.54,0,34-7.48,35.05-7.84.47-.18.47-.21,0-.36l-4.3-1.59c-2.1-.79-3.8-1.41-3.8-1.37S96.69,9.2,87,11.3Zm19.84-1.48c.15-.11.29,0,.29.32s-.11.51-.22.47a3.35,3.35,0,0,0-.47.07,12,12,0,0,1-2.27.51c-.8.18-3.15.69-5.24,1.19-6.36,1.48-6.33,1.48-6.33,1.56a12.84,12.84,0,0,1-2.34.54c-.69.11-3.15.61-5.42,1.15s-4.63,1-5.24,1.09a5.09,5.09,0,0,0-1.45.47c-.43.32-3-.69-3.22-1.3-.1-.26.69-.58,2.06-.87s4-.83,6.22-1.3,4.3-.94,4.7-1C91.74,12,99.58,10.18,99.87,10a5.34,5.34,0,0,1,1.7-.36,13.79,13.79,0,0,0,2.35-.37,2.09,2.09,0,0,1,1.84.22C106.19,9.74,106.7,9.92,106.88,9.82Z" transform="translate(-57.23 10.36)"/><path d="M100.77,15.78c-7.66,1.77-15.75,3.61-18,4.15l-4.09.94v9.58c0,9,0,9.58.65,9.32.33-.11,9.4-3,20.13-6.36s20-6.28,20.67-6.5a2.36,2.36,0,0,0,1.34-.91c.21-.57-6.11-13.55-6.58-13.47C114.79,12.53,108.44,14,100.77,15.78Zm14-1a1.87,1.87,0,0,1,.4.58,15.39,15.39,0,0,0,.87,1.81,14.74,14.74,0,0,1,.86,1.8c.15.84.66,1.81.94,1.81s.29.11.26.25a6.61,6.61,0,0,0,.79,1.92,13.67,13.67,0,0,1,.91,2c0,.43-1.23,1.41-1.49,1.15a61.55,61.55,0,0,0-8.09,2.5,4.14,4.14,0,0,1-1.08.32c-.76.11-8.06,2.39-8.5,2.64a2.37,2.37,0,0,1-1,.32c-.37.08-1.88.55-3.44,1s-3,1-3.29,1.05l-.72.18a.87.87,0,0,1-.43,0c-.18,0-.29.14-.29.36s-.15.29-.29.18a30.21,30.21,0,0,0-5.28,1.41,27.21,27.21,0,0,1-5.31,1.41,48.82,48.82,0,0,1-.32-7.73c0-8.39-.11-8.1,2.64-8.39.32,0,.61-.18.61-.29s.54-.21,1.23-.25c1-.07,4.59-.87,11.06-2.46l4.69-1.05c2.28-.47,5.86-1.3,8-1.8C114.14,14.26,114.18,14.22,114.72,14.8Z" transform="translate(-57.23 10.36)"/><path d="M61.68,22.43c-2.57,2.92-4.52,5.42-4.45,5.71S75.81,39.59,76.35,39.59c.14,0,.18-4.23.14-9.43l-.11-9.43L71.51,19c-2.68-1-5-1.77-5.06-1.74S64.21,19.57,61.68,22.43Zm7.15-2.86c1,.33,2,.65,2.31.76a2.56,2.56,0,0,0,.91.25,8,8,0,0,1,1.51.69l1.16.62.11,7.51c.11,7.12.07,7.52-.54,7.48a1.29,1.29,0,0,1-.91-.43c-.32-.44-6.36-3.94-6.46-3.72s-.44-.18-.91-.58a9.36,9.36,0,0,0-1.77-1.27c-5-2.63-5.17-2.78-4.37-4C60.45,26,66.74,19,67,19,67,19,67.86,19.25,68.83,19.57Z" transform="translate(-57.23 10.36)"/></g><g id="Layer_1" data-name="Layer 1"><path d="M211.85.07c-.28,2,1,4.59,2.36,4.9,2.65.61,2.13-3.16-.77-5.34l-1.36-1Z" transform="translate(-57.23 10.36)"/><path d="M156.5,34.91c2.45,4.12,9.37,9.22,15.85,11.67,1.85.71,6.81,2.33,10.93,3.61,6.2,1.92,7.88,2.57,9.35,3.67,2.66,2,2.34.79-.66-2.43-2.29-2.44-2.79-2.76-6-3.9a54.16,54.16,0,0,0-7.3-1.88C170,44.17,161.29,40,157.8,35.57,155.84,33.15,155.28,32.85,156.5,34.91Z" transform="translate(-57.23 10.36)"/><path class="cls-1" d="M112,2.8c-2.4,1.2-5.1,4.2-8.7,9.7C96,23.8,94,26.1,90,26.9c-2.9.6-3.5,1.1-3.5,3.1,0,2.2.4,2.5,3,2.3,5.1-.4,10.4-5.2,15.9-14.2,8.3-13.8,2.7-12.6,59.7-12.9C212.9,4.9,214,4.9,214,3s-1-2-49.2-2C119.9,1,115.2,1.2,112,2.8Z" transform="translate(-57.23 10.36)"/><path class="cls-1" d="M116.3,10c-1.8,1.1-3.3,2.2-3.3,2.5s18.7.5,41.5.5H196V8H157.8C121.4,8,119.3,8.1,116.3,10Z" transform="translate(-57.23 10.36)"/><path class="cls-1" d="M110.3,16.2c-3,3.9-3.6,3.8,33.1,3.8H179V15H145.1C119.2,15,111,15.3,110.3,16.2Z" transform="translate(-57.23 10.36)"/><path class="cls-1" d="M104.5,25c-1,1.1-1.6,2-1.4,2s13.3.1,29.1.3l28.7.2.4-2.3.4-2.2H134C107.6,23,106.2,23.1,104.5,25Z" transform="translate(-57.23 10.36)"/><path class="cls-1" d="M99.5,31c-.3.5-2.7,1.6-5.3,2.4-4.2,1.3.5,1.5,48.6,1.5,31.7.1,53.2-.3,53.2-.8a11,11,0,0,1,.6-2.5c.6-1.4-4.1-1.6-47.9-1.6C117.9,30,99.9,30.4,99.5,31Z" transform="translate(-57.23 10.36)"/></g><g id="wheat"><path d="M219.27-9.89c-1.53,2-2,4.88-.84,5.72.89.7-.42,5.72-3.74,14.09-3.41,8.62-6.43,13.22-12.2,18.57-7.59,7.08-19.31,11.16-31.06,10.75-2.21-.08-4.35-.12-4.72-.16s-.57.13-.32.36c.52.43,7.49,1.1,9.89,1a47.71,47.71,0,0,0,8.71-1A41.65,41.65,0,0,0,205.83,28a71.67,71.67,0,0,0,4.44-5.63c2.39-3.35,2.83-4.34,5.35-11.27A78.67,78.67,0,0,0,218.93-.08c.42-2.67.75-3.6,1.21-3.82,1.1-.51,1.53-2.41,1.06-4.3C220.63-10.36,220.05-10.85,219.27-9.89Z" transform="translate(-57.23 10.36)"/><path d="M223.21-4.19c-2,.87-2.42,1.29-2.71,2.52C220,.21,221,.82,223-.21c1.17-.59,1.62-1.19,2.2-2.8a5.38,5.38,0,0,0,.52-2.15A16.51,16.51,0,0,0,223.21-4.19Z" transform="translate(-57.23 10.36)"/><path d="M213.13-6.73a8.09,8.09,0,0,0,.8,4.2c.68,1.29,2.89,1.94,3.45,1s-.38-3-2.27-4.35C214-6.61,213.22-7,213.13-6.73Z" transform="translate(-57.23 10.36)"/><path d="M221.82,2.38c-2.57,1.19-3.42,2.22-3,3.55.62,2.14,4.53.28,5.59-2.68.3-.85.33-1.6.12-1.68A8.19,8.19,0,0,0,221.82,2.38Z" transform="translate(-57.23 10.36)"/><path d="M220.44,8.67c-2,.44-2.59.84-3.3,2-.77,1.35-.63,2.31.37,2.71.8.29,3.61-1.29,4.55-2.58C224.09,8.06,223.93,7.86,220.44,8.67Z" transform="translate(-57.23 10.36)"/><path d="M210.07,5.35c-.25,2.3.14,3.88,1.26,4.9s2,1.06,2.46-.08c.62-1.74-.38-3.76-2.71-5.51C210.28,4.09,210.2,4.16,210.07,5.35Z" transform="translate(-57.23 10.36)"/><path d="M207.87,11.26c-.4,2.43.25,4.24,1.76,5,1.18.56,1.34.52,1.73-.58.53-1.48.24-2.54-1.3-4.38S208.22,9.33,207.87,11.26Z" transform="translate(-57.23 10.36)"/><path d="M218.24,15c-3.52.51-5.81,3.32-3.4,4.18a4.46,4.46,0,0,0,4.95-2C221.75,14.49,221.68,14.42,218.24,15Z" transform="translate(-57.23 10.36)"/><path d="M205.09,16.23a6.52,6.52,0,0,0,1,5.25c.42.57.74.6,1.48.14,1.21-.86,1.19-2.15,0-4.74C206.12,14,205.59,13.88,205.09,16.23Z" transform="translate(-57.23 10.36)"/><path d="M214.77,21.21c-2.62.26-3.83,1-4.39,2.55-.29.8-.11,1,1.51,1.39s2.07.36,3.57-.78c2.2-1.6,3.19-2.92,2.43-3.19A14.41,14.41,0,0,0,214.77,21.21Z" transform="translate(-57.23 10.36)"/><path d="M201.86,20.19c-1.27,2.08-.52,5.88,1.25,6.13s2.3-2.81.95-5.34C203,18.86,202.74,18.79,201.86,20.19Z" transform="translate(-57.23 10.36)"/><path d="M210.56,26.87c-2.54,0-4,.72-4.31,2.05-.24.92,0,1.28,1.08,1.77,1.6.76,3.57.18,5.86-1.68l1.56-1.31-1.19-.42A14.89,14.89,0,0,0,210.56,26.87Z" transform="translate(-57.23 10.36)"/><path d="M198.18,23.94c-1.72,3-1.33,6.83.68,6.4,1.62-.37,2.26-2.72,1.42-5.31a7.88,7.88,0,0,0-1-2.37C199.09,22.6,198.6,23.18,198.18,23.94Z" transform="translate(-57.23 10.36)"/><path d="M187.24,24.38a12.85,12.85,0,0,0-7.7,3.9c-5,4.68-9.57,7.43-13.39,8-1.09.09-1.9.37-1.81.5.28.58,5.09-.33,7.85-1.5s4.11-2,10.42-6.88a27.13,27.13,0,0,1,4.75-3C189.55,24.59,189.47,24.27,187.24,24.38Z" transform="translate(-57.23 10.36)"/><path d="M194,27c-1.32,1.44-2.11,5-1.39,6.05.47.69.7.72,1.53.4,1.56-.64,2.11-2.16,1.82-4.84a5.93,5.93,0,0,0-.66-2.58C195.08,25.94,194.49,26.4,194,27Z" transform="translate(-57.23 10.36)"/><path d="M205.13,31.91c-2.16-.24-4.6,1-4.35,2.17s2.05,2,3.85,1.9c1.26,0,4.94-1.91,5.18-2.59C209.93,33.05,207.06,32.12,205.13,31.91Z" transform="translate(-57.23 10.36)"/><path d="M189.44,29.18c-2.4,1.91-3.41,6-1.67,6.57S191.33,33.39,191,30l-.16-2Z" transform="translate(-57.23 10.36)"/><path d="M197.94,35.89c-1.26,0-2.65.73-2.92,1.49-.35,1,1.49,2.63,3.2,2.81a9.34,9.34,0,0,0,3.68-.69c2.11-.83,2.27-1,1.68-1.5A15.75,15.75,0,0,0,197.94,35.89Z" transform="translate(-57.23 10.36)"/><path d="M190.68,38.84A2.31,2.31,0,0,0,188.92,40c-1.07,2.19,2.84,4.07,6.6,3.16,1-.25,1.85-.63,1.88-.85,0-.53-3-2.78-4.41-3.3A5.86,5.86,0,0,0,190.68,38.84Z" transform="translate(-57.23 10.36)"/></g></svg>